<?xml version="1.0" encoding="UTF-8"?>
<svg width="24" height="24" version="1.1" viewBox="0 0 24 24" xmlns="http://www.w3.org/2000/svg">
 <defs>
  <style type="text/css">
   .ColorScheme-Text { color:#232629; }
  </style>
 </defs>
 <!-- Speaker 1 (left) -->
 <path class="ColorScheme-Text" fill="currentColor" d="m3 9v6l3-2v-2z"/>
 <path class="ColorScheme-Text" fill="currentColor" d="m6 9 4-3v12l-4-3z"/>
 
 <!-- Sound waves from speaker 1 -->
 <path class="ColorScheme-Text" fill="none" stroke="currentColor" stroke-width="1.5" stroke-linecap="round" 
       d="m11 10c0.5 0.5 0.5 1.5 0 2"/>
 <path class="ColorScheme-Text" fill="none" stroke="currentColor" stroke-width="1.5" stroke-linecap="round" 
       d="m12 8.5c1 1 1 3 0 4"/>
 
 <!-- Link chain in the middle -->
 <path class="ColorScheme-Text" fill="currentColor" 
       d="m11.5 11h1.5v2h-1.5z"/>
 <ellipse class="ColorScheme-Text" fill="none" stroke="currentColor" stroke-width="1.2" 
          cx="11.5" cy="11.5" rx="1.5" ry="1.5"/>
 <ellipse class="ColorScheme-Text" fill="none" stroke="currentColor" stroke-width="1.2" 
          cx="13" cy="12.5" rx="1.5" ry="1.5"/>
 
 <!-- Speaker 2 (right) -->
 <path class="ColorScheme-Text" fill="currentColor" d="m21 9v6l-3-2v-2z"/>
 <path class="ColorScheme-Text" fill="currentColor" d="m18 9-4-3v12l4-3z"/>
 
 <!-- Sound waves from speaker 2 -->
 <path class="ColorScheme-Text" fill="none" stroke="currentColor" stroke-width="1.5" stroke-linecap="round" 
       d="m13 10c-0.5 0.5-0.5 1.5 0 2"/>
 <path class="ColorScheme-Text" fill="none" stroke="currentColor" stroke-width="1.5" stroke-linecap="round" 
       d="m12 8.5c-1 1-1 3 0 4"/>
</svg>
